<?xml version="1.0" encoding="UTF-8"?>
<!DOCTYPE svg PUBLIC "-//W3C//DTD SVG 1.1//EN" "http://www.w3.org/Graphics/SVG/1.1/DTD/svg11.dtd">
<!-- Creator: CorelDRAW -->
<svg xmlns="http://www.w3.org/2000/svg" xml:space="preserve" width="11811px" height="7512px" version="1.1" style="shape-rendering:geometricPrecision; text-rendering:geometricPrecision; image-rendering:optimizeQuality; fill-rule:evenodd; clip-rule:evenodd"
viewBox="0 0 5010.08 3186.46"
 xmlns:xlink="http://www.w3.org/1999/xlink"
 xmlns:xodm="http://www.corel.com/coreldraw/odm/2003">
 <defs>
  <style type="text/css">
   <![CDATA[
    .fil0 {fill:#FEFEFE}
    .fil3 {fill:#766FB2}
    .fil1 {fill:#766FB2}
    .fil2 {fill:#766FB2;fill-rule:nonzero}
   ]]>
  </style>
 </defs>
 <g id="Слой_x0020_1">
  <metadata id="CorelCorpID_0Corel-Layer"/>
  <g id="_1715464284032">
   <g>
    <polygon class="fil0" points="3349.32,390.75 2930.46,390.75 3056.01,625.27 3474.88,625.27 "/>
    <polygon class="fil0" points="4591.22,390.75 5010.08,390.75 5010.08,1864.6 4591.22,1864.6 4220.27,1172.56 4220.27,1809.33 3801.41,1027.51 3801.41,390.75 4220.27,390.75 4220.27,391.07 4591.22,1082.79 "/>
    <polygon class="fil1" points="2621.17,0 1621.78,1864.6 2040.97,1864.6 2621.17,781.82 3201.4,1864.6 3620.26,1864.6 "/>
    <polygon class="fil0" points="54.64,390.75 473.5,390.75 1065.85,1496.21 1658.2,390.75 2077.07,390.75 2077.07,828.79 1658.2,1610.28 1658.2,1172.56 1523.69,1423.69 1287.27,1864.6 844.44,1864.6 473.5,1172.56 473.5,1864.6 54.64,1864.6 "/>
    <polygon class="fil0" points="4620.93,1949.91 5010.08,1949.91 5009.12,2698.18 4796.33,2698.18 4796.33,2070.69 4575.25,2698.18 4274.59,2698.18 3942.95,1949.91 4161.81,1949.91 4427.63,2567.82 "/>
    <path class="fil0" d="M3374.24 2698.18l-219.17 0 328.12 -748.27 342.18 0 329.09 748.27 -226.53 0c-130.03,-308.33 -119.81,-283.41 -276.69,-653.07 -70.61,167.44 -112.13,264.56 -150.15,353.69l191.37 0 56.24 126.21 -300.98 0c-21.09,49.21 -44.41,103.83 -73.48,173.17z"/>
    <polygon class="fil0" points="2311.59,2525.01 3115.76,2525.01 3039.72,2698.18 2311.59,2698.18 "/>
    <polygon class="fil0" points="2311.59,2236.18 3242.29,2236.18 3171.04,2398.8 2311.59,2398.8 "/>
    <polygon class="fil0" points="2311.59,1949.91 3367.85,1949.91 3292.13,2123.08 2311.59,2123.08 "/>
    <path class="fil0" d="M1981.54 2698.18l-244.73 -265.19 -139 0 0 265.19 -222.37 0 0 -431.97 521.75 0c30.68,0 54.64,-5.74 72.53,-16.93 17.89,-11.5 26.83,-28.44 26.83,-50.48 0,-22.04 -9.26,-39.3 -27.15,-52.39 -18.21,-12.78 -42.49,-19.18 -72.21,-19.18l-649.54 0 0 570.95 -222.37 0 0 -570.95 -103.52 0c-22.05,-71.57 -70.29,-126.84 -138.35,-166.79 -6.38,-3.82 -12.77,-7.33 -19.16,-10.53l1143.49 0c89.77,0 164.22,20.44 223.01,61.99 58.78,41.2 88.18,103.51 88.18,186.9 0,133.23 -76.68,209.91 -230.04,230.04l273.81 269.34 -281.16 0z"/>
    <path class="fil0" d="M209.6 2433.95c6.38,31.32 28.11,58.47 65.17,80.83 37.06,22.37 91.38,33.56 163.59,33.56 52.07,0 97.44,-4.49 136.74,-13.74 39.3,-9.27 58.79,-23.96 58.79,-43.78 0,-23 -29.72,-41.21 -88.82,-54.64l-286.27 -65.17c-147.61,-33.55 -221.42,-101.93 -221.42,-205.11 0,-39.31 10.23,-74.13 30.68,-104.49 20.12,-30.04 48.24,-54 83.7,-71.56 35.79,-17.26 75.73,-30.68 119.82,-39.29 44.09,-8.95 91.38,-13.44 142.17,-13.44 114.06,0 208.32,21.73 283.08,65.51 75.09,44.09 116.94,105.75 126.21,185.61l-210.56 8.64c-7.03,-25.88 -27.79,-48.24 -61.98,-68.04 -34.19,-19.51 -83.07,-29.4 -146.33,-29.4 -42.18,0 -76.68,4.78 -103.84,14.05 -27.16,9.27 -40.57,22.05 -40.57,38.34 0,22.04 28.44,39.63 85.62,52.4l261.67 57.83c84.34,18.53 146.65,43.45 187.55,74.76 41.22,31.32 61.66,76.04 61.66,134.51 0,80.51 -37.38,140.58 -112.14,180.2 -75.09,39.63 -177.32,59.42 -307.04,59.42 -276.37,0 -422.06,-90.41 -437.08,-271.56l209.6 -5.44z"/>
    <polygon class="fil0" points="3112.88,731.34 3720.26,1864.6 4139.12,1864.6 3531.75,731.34 "/>
   </g>
   <path class="fil2" d="M1059.74 2943.68l156.07 0 0 52.03 -156.07 0c-23.14,0 -34.68,11.6 -34.68,34.68l0 69.37c0,23.14 11.54,34.68 34.68,34.68l104.05 0 0 -43.33 -86.71 0 0 -52.02 138.73 0 0 147.37 -156.07 0c-57.82,0 -86.71,-28.88 -86.71,-86.7l0 -69.37c0,-57.77 28.89,-86.71 86.71,-86.71zm529.57 190.76l190.75 0 0 52.02 -242.78 0 0 -242.78 52.03 0 0 190.76zm564.24 -104.05l0 69.37c0,23.14 11.54,34.68 34.68,34.68l69.37 0c23.08,0 34.68,-11.54 34.68,-34.68l0 -69.37c0,-23.08 -11.6,-34.68 -34.68,-34.68l-69.37 0c-23.14,0 -34.68,11.6 -34.68,34.68zm-52.02 69.37l0 -69.37c0,-57.77 28.88,-86.71 86.7,-86.71l69.37 0c57.76,0 86.71,28.94 86.71,86.71l0 69.37c0,57.82 -28.95,86.7 -86.71,86.7l-69.37 0c-57.82,0 -86.7,-28.88 -86.7,-86.7zm737.66 -156.08c46.22,0 69.36,23.14 69.36,69.37l0 8.7c0,17.87 -3.49,32.37 -10.41,43.32 6.92,11.01 10.41,25.45 10.41,43.39l0 8.64c0,46.22 -23.14,69.36 -69.36,69.36l-173.42 0 0 -242.78 173.42 0zm0 190.76c11.54,0 17.34,-5.8 17.34,-17.34l0 -8.64c0,-11.61 -5.8,-17.35 -17.34,-17.35l-121.39 0 0 43.33 121.39 0zm17.34 -121.39c0,-11.54 -5.8,-17.34 -17.34,-17.34l-121.39 0 0 43.38 121.39 0c11.54,0 17.34,-5.8 17.34,-17.34l0 -8.7zm535.07 86.71l-40.19 -69.73 -40.25 69.73 80.44 0zm-40.19 -173.71l150.33 260.41 -60.19 0 -19.95 -34.68 -140.44 0 -20.12 34.68 -59.96 0 150.33 -260.41zm494.88 208.39l190.76 0 0 52.02 -242.78 0 0 -242.78 52.02 0 0 190.76z"/>
   <g>
    <polygon class="fil3" points="742.04,3026.5 54.64,3026.5 54.64,3086.01 742.04,3086.01 "/>
    <polygon class="fil3" points="5009.18,3026.5 4268.04,3026.5 4268.04,3086.01 5009.18,3086.01 "/>
   </g>
  </g>
 </g>
</svg>
