<?xml version="1.0" encoding="UTF-8"?>
<!DOCTYPE svg PUBLIC "-//W3C//DTD SVG 1.1//EN" "http://www.w3.org/Graphics/SVG/1.1/DTD/svg11.dtd">
<!-- Creator: CorelDRAW -->
<svg xmlns="http://www.w3.org/2000/svg" xml:space="preserve" width="2724px" height="201px" version="1.1" style="shape-rendering:geometricPrecision; text-rendering:geometricPrecision; image-rendering:optimizeQuality; fill-rule:evenodd; clip-rule:evenodd"
viewBox="0 0 2724 200.89"
 xmlns:xlink="http://www.w3.org/1999/xlink"
 xmlns:xodm="http://www.corel.com/coreldraw/odm/2003">
 <defs>
  <style type="text/css">
   <![CDATA[
    .fil0 {fill:white;fill-rule:nonzero}
   ]]>
  </style>
 </defs>
 <g id="Слой_x0020_1">
  <metadata id="CorelCorpID_0Corel-Layer"/>
  <g id="_1714586182928">
   <polygon class="fil0" points="692.69,199.72 692.69,0.88 744.54,0.88 744.54,199.72 "/>
   <polygon class="fil0" points="369.12,199.71 487.8,1.15 554.79,1.15 673.47,199.71 615.26,199.71 522.96,45.22 519.62,45.22 427.28,199.71 "/>
   <polygon class="fil0" points="2014.72,199.72 1878.11,199.72 1878.11,1.16 2132.04,1.16 2132.04,3.45 2107.07,45.23 1929.99,45.23 1929.99,78.38 2087.25,78.38 2060.9,122.46 1929.99,122.46 1929.99,155.6 2041.1,155.6 "/>
   <polygon class="fil0" points="298.05,52.46 175.52,121.72 51.83,52.46 51.83,199.71 0,199.71 0,1.15 54.63,1.15 174.92,68.86 295.2,1.15 349.9,1.15 349.9,199.71 298.05,199.71 "/>
   <polygon class="fil0" points="970.46,199.85 815.61,52.44 815.61,199.85 763.76,199.85 763.76,1.29 818.36,1.29 970.46,142.02 970.46,1.02 1022.32,1.02 1022.32,199.85 "/>
   <path class="fil0" d="M1055.71 156.63l182.6 0c9.43,0 17.06,-6.49 17.06,-14.49l0 -4.76c0,-8 -7.63,-14.49 -17.06,-14.49l-127.89 0c-38.03,0 -68.89,-26.2 -68.89,-58.57l0 -4.75c0,-32.37 30.86,-58.57 68.89,-58.57l182.62 0 0 44.07 -182.62 0c-9.41,0 -17.04,6.5 -17.04,14.5l0 4.75c0,8 7.63,14.5 17.04,14.5l127.89 0c38.04,0 68.91,26.24 68.91,58.56l0 4.76c0,28.98 -24.79,53.07 -57.3,57.74l-194.21 0 0 -43.25z"/>
   <polygon class="fil0" points="1427.48,199.88 1427.48,45.07 1326.44,45.07 1326.44,1 1580.36,1 1580.36,45.07 1479.37,45.07 1479.37,199.88 "/>
   <path class="fil0" d="M1779.85 200.89l-35.7 -58.06 -92.73 0 0 58.06 -51.84 0 0 -102.18 189.91 0c9.7,0 17.51,-6.68 17.51,-14.86l0 -24.87c0,-8.23 -7.81,-14.91 -17.51,-14.91l-189.69 0 0 -44.07 189.69 0c38.32,0 69.4,26.38 69.4,58.98l0 24.87c0,28.89 -24.49,52.94 -56.82,57.97l36.3 59.07 -58.52 0z"/>
   <polygon class="fil0" points="2354.88,199.71 2236.2,1.15 2169.21,1.15 2050.53,199.71 2108.74,199.71 2201.04,45.22 2204.38,45.22 2296.72,199.71 "/>
   <polygon class="fil0" points="2425.95,52.46 2548.48,121.72 2672.16,52.46 2672.16,199.71 2724,199.71 2724,1.15 2669.37,1.15 2549.08,68.86 2428.8,1.15 2374.1,1.15 2374.1,199.71 2425.95,199.71 "/>
  </g>
 </g>
</svg>
